
<svg xmlns="http://www.w3.org/2000/svg" viewBox="0 0 800 600" width="100%" height="100%">
  <defs>
    <radialGradient id="bg-grad" cx="50%" cy="50%" r="70%">
      <stop offset="0%" stop-color="#0D1B3E" />
      <stop offset="100%" stop-color="#050C1A" />
    </radialGradient>
    <linearGradient id="gold-grad" x1="0%" y1="0%" x2="100%" y2="100%">
      <stop offset="0%" stop-color="#F4E8D1" />
      <stop offset="50%" stop-color="#D4AF37" />
      <stop offset="100%" stop-color="#AA7C11" />
    </linearGradient>
    <filter id="glow" x="-20%" y="-20%" width="140%" height="140%">
      <feGaussianBlur stdDeviation="8" result="blur" />
      <feComposite in="SourceGraphic" in2="blur" operator="over" />
    </filter>
  </defs>

  <!-- Background -->
  <rect width="800" height="600" fill="url(#bg-grad)" />
  
  <!-- Outer luxury border -->
  <rect x="20" y="20" width="760" height="560" fill="none" stroke="url(#gold-grad)" stroke-width="1.5" opacity="0.3" />
  <rect x="30" y="30" width="740" height="540" fill="none" stroke="url(#gold-grad)" stroke-width="0.5" opacity="0.15" />
  
  <!-- Corner designs -->
  <path d="M 20 60 L 20 20 L 60 20" fill="none" stroke="url(#gold-grad)" stroke-width="3" />
  <path d="M 780 60 L 780 20 L 740 20" fill="none" stroke="url(#gold-grad)" stroke-width="3" />
  <path d="M 20 540 L 20 580 L 60 580" fill="none" stroke="url(#gold-grad)" stroke-width="3" />
  <path d="M 780 540 L 780 580 L 740 580" fill="none" stroke="url(#gold-grad)" stroke-width="3" />

  <!-- Center Graphic -->
  <g transform="translate(400, 270)">
    
      <!-- Palace Pillars -->
      <line x1="-140" y1="-100" x2="-140" y2="100" stroke="url(#gold-grad)" stroke-width="6" />
      <line x1="140" y1="-100" x2="140" y2="100" stroke="url(#gold-grad)" stroke-width="6" />
      
      <!-- Pillar capital arcs -->
      <path d="M -160 -100 Q -140 -80 -120 -100" fill="none" stroke="url(#gold-grad)" stroke-width="2" />
      <path d="M 120 -100 Q 140 -80 160 -100" fill="none" stroke="url(#gold-grad)" stroke-width="2" />

      <!-- Center table -->
      <ellipse cx="0" cy="50" rx="90" ry="20" fill="none" stroke="url(#gold-grad)" stroke-width="2.5" filter="url(#glow)" />
      
      <!-- Flower Vase in Center -->
      <path d="M -10 50 L 10 50 L 8 25 L -8 25 Z" fill="url(#gold-grad)" />
      <circle cx="0" cy="15" r="10" fill="#4A0E17" stroke="url(#gold-grad)" stroke-width="1" />
    
  </g>

  <!-- Title Text -->
  <text x="400" y="520" text-anchor="middle" font-family="'Cormorant Garamond', serif" font-size="28" font-weight="bold" fill="url(#gold-grad)" letter-spacing="4" filter="url(#glow)">
    THE GRAND DARBAR
  </text>
  <text x="400" y="550" text-anchor="middle" font-family="'Montserrat', sans-serif" font-size="10" font-weight="light" fill="#F4E8D1" opacity="0.6" letter-spacing="3">
    URBAN MAHARAJA FINE DINING
  </text>
</svg>
