
<svg xmlns="http://www.w3.org/2000/svg" viewBox="0 0 800 600" width="100%" height="100%">
  <defs>
    <radialGradient id="bg-grad" cx="50%" cy="50%" r="70%">
      <stop offset="0%" stop-color="#0D1B3E" />
      <stop offset="100%" stop-color="#050C1A" />
    </radialGradient>
    <linearGradient id="gold-grad" x1="0%" y1="0%" x2="100%" y2="100%">
      <stop offset="0%" stop-color="#F4E8D1" />
      <stop offset="50%" stop-color="#D4AF37" />
      <stop offset="100%" stop-color="#AA7C11" />
    </linearGradient>
    <filter id="glow" x="-20%" y="-20%" width="140%" height="140%">
      <feGaussianBlur stdDeviation="8" result="blur" />
      <feComposite in="SourceGraphic" in2="blur" operator="over" />
    </filter>
  </defs>

  <!-- Background -->
  <rect width="800" height="600" fill="url(#bg-grad)" />
  
  <!-- Outer luxury border -->
  <rect x="20" y="20" width="760" height="560" fill="none" stroke="url(#gold-grad)" stroke-width="1.5" opacity="0.3" />
  <rect x="30" y="30" width="740" height="540" fill="none" stroke="url(#gold-grad)" stroke-width="0.5" opacity="0.15" />
  
  <!-- Corner designs -->
  <path d="M 20 60 L 20 20 L 60 20" fill="none" stroke="url(#gold-grad)" stroke-width="3" />
  <path d="M 780 60 L 780 20 L 740 20" fill="none" stroke="url(#gold-grad)" stroke-width="3" />
  <path d="M 20 540 L 20 580 L 60 580" fill="none" stroke="url(#gold-grad)" stroke-width="3" />
  <path d="M 780 540 L 780 580 L 740 580" fill="none" stroke="url(#gold-grad)" stroke-width="3" />

  <!-- Center Graphic -->
  <g transform="translate(400, 270)">
    
      <!-- Arches framework -->
      <path d="M -150 100 L -150 -50 C -150 -150 150 -150 150 -50 L 150 100" fill="none" stroke="url(#gold-grad)" stroke-width="2.5" filter="url(#glow)" />
      <path d="M -120 100 L -120 -40 C -120 -120 120 -120 120 -40 L 120 100" fill="none" stroke="url(#gold-grad)" stroke-width="1" opacity="0.4" />
      
      <!-- Chandelier Hanging -->
      <line x1="0" y1="-100" x2="0" y2="-40" stroke="url(#gold-grad)" stroke-width="2" />
      <path d="M -40 -40 L 40 -40 C 40 -40 30 0 0 10 C -30 0 -40 -40 -40 -40 Z" fill="url(#gold-grad)" opacity="0.8" />
      
      <!-- Glowing dots (crystals) -->
      <circle cx="0" cy="20" r="4" fill="#F4E8D1" />
      <circle cx="-20" cy="12" r="3" fill="#F4E8D1" />
      <circle cx="20" cy="12" r="3" fill="#F4E8D1" />
      <circle cx="-35" cy="5" r="2.5" fill="#F4E8D1" />
      <circle cx="35" cy="5" r="2.5" fill="#F4E8D1" />
    
  </g>

  <!-- Title Text -->
  <text x="400" y="520" text-anchor="middle" font-family="'Cormorant Garamond', serif" font-size="28" font-weight="bold" fill="url(#gold-grad)" letter-spacing="4" filter="url(#glow)">
    SHEESH MAHAL SUITE
  </text>
  <text x="400" y="550" text-anchor="middle" font-family="'Montserrat', sans-serif" font-size="10" font-weight="light" fill="#F4E8D1" opacity="0.6" letter-spacing="3">
    URBAN MAHARAJA FINE DINING
  </text>
</svg>
