
<svg xmlns="http://www.w3.org/2000/svg" viewBox="0 0 800 600" width="100%" height="100%">
  <defs>
    <radialGradient id="bg-grad" cx="50%" cy="50%" r="70%">
      <stop offset="0%" stop-color="#0D1B3E" />
      <stop offset="100%" stop-color="#050C1A" />
    </radialGradient>
    <linearGradient id="gold-grad" x1="0%" y1="0%" x2="100%" y2="100%">
      <stop offset="0%" stop-color="#F4E8D1" />
      <stop offset="50%" stop-color="#D4AF37" />
      <stop offset="100%" stop-color="#AA7C11" />
    </linearGradient>
    <filter id="glow" x="-20%" y="-20%" width="140%" height="140%">
      <feGaussianBlur stdDeviation="8" result="blur" />
      <feComposite in="SourceGraphic" in2="blur" operator="over" />
    </filter>
  </defs>

  <!-- Background -->
  <rect width="800" height="600" fill="url(#bg-grad)" />
  
  <!-- Outer luxury border -->
  <rect x="20" y="20" width="760" height="560" fill="none" stroke="url(#gold-grad)" stroke-width="1.5" opacity="0.3" />
  <rect x="30" y="30" width="740" height="540" fill="none" stroke="url(#gold-grad)" stroke-width="0.5" opacity="0.15" />
  
  <!-- Corner designs -->
  <path d="M 20 60 L 20 20 L 60 20" fill="none" stroke="url(#gold-grad)" stroke-width="3" />
  <path d="M 780 60 L 780 20 L 740 20" fill="none" stroke="url(#gold-grad)" stroke-width="3" />
  <path d="M 20 540 L 20 580 L 60 580" fill="none" stroke="url(#gold-grad)" stroke-width="3" />
  <path d="M 780 540 L 780 580 L 740 580" fill="none" stroke="url(#gold-grad)" stroke-width="3" />

  <!-- Center Graphic -->
  <g transform="translate(400, 270)">
    
      <!-- Plate -->
      <circle cx="0" cy="0" r="120" fill="none" stroke="url(#gold-grad)" stroke-width="2" opacity="0.3" />
      <circle cx="0" cy="0" r="100" fill="none" stroke="url(#gold-grad)" stroke-width="1" stroke-dasharray="5,5" opacity="0.5" />
      
      <!-- Lobster shape -->
      <path d="M 0 -70 C -15 -70 -25 -40 -20 20 C -15 40 -25 70 0 80 C 25 70 15 40 20 20 C 25 -40 15 -70 0 -70 Z" fill="url(#gold-grad)" opacity="0.8" />
      <path d="M -15 -50 C -35 -60 -45 -40 -40 -20 C -35 0 -20 -20 -20 -20" fill="none" stroke="url(#gold-grad)" stroke-width="3" />
      <path d="M 15 -50 C 35 -60 45 -40 40 -20 C 35 0 20 -20 20 -20" fill="none" stroke="url(#gold-grad)" stroke-width="3" />
      
      <!-- Garnish leaf -->
      <path d="M -10 30 Q -30 45 -20 60 Q 0 45 -10 30 Z" fill="#22c55e" opacity="0.6" />
    
  </g>

  <!-- Title Text -->
  <text x="400" y="520" text-anchor="middle" font-family="'Cormorant Garamond', serif" font-size="28" font-weight="bold" fill="url(#gold-grad)" letter-spacing="4" filter="url(#glow)">
    TANDOORI LOBSTER DURBAR
  </text>
  <text x="400" y="550" text-anchor="middle" font-family="'Montserrat', sans-serif" font-size="10" font-weight="light" fill="#F4E8D1" opacity="0.6" letter-spacing="3">
    URBAN MAHARAJA FINE DINING
  </text>
</svg>
