
<svg xmlns="http://www.w3.org/2000/svg" viewBox="0 0 800 600" width="100%" height="100%">
  <defs>
    <radialGradient id="bg-grad" cx="50%" cy="50%" r="70%">
      <stop offset="0%" stop-color="#0D1B3E" />
      <stop offset="100%" stop-color="#050C1A" />
    </radialGradient>
    <linearGradient id="gold-grad" x1="0%" y1="0%" x2="100%" y2="100%">
      <stop offset="0%" stop-color="#F4E8D1" />
      <stop offset="50%" stop-color="#D4AF37" />
      <stop offset="100%" stop-color="#AA7C11" />
    </linearGradient>
    <filter id="glow" x="-20%" y="-20%" width="140%" height="140%">
      <feGaussianBlur stdDeviation="8" result="blur" />
      <feComposite in="SourceGraphic" in2="blur" operator="over" />
    </filter>
  </defs>

  <!-- Background -->
  <rect width="800" height="600" fill="url(#bg-grad)" />
  
  <!-- Outer luxury border -->
  <rect x="20" y="20" width="760" height="560" fill="none" stroke="url(#gold-grad)" stroke-width="1.5" opacity="0.3" />
  <rect x="30" y="30" width="740" height="540" fill="none" stroke="url(#gold-grad)" stroke-width="0.5" opacity="0.15" />
  
  <!-- Corner designs -->
  <path d="M 20 60 L 20 20 L 60 20" fill="none" stroke="url(#gold-grad)" stroke-width="3" />
  <path d="M 780 60 L 780 20 L 740 20" fill="none" stroke="url(#gold-grad)" stroke-width="3" />
  <path d="M 20 540 L 20 580 L 60 580" fill="none" stroke="url(#gold-grad)" stroke-width="3" />
  <path d="M 780 540 L 780 580 L 740 580" fill="none" stroke="url(#gold-grad)" stroke-width="3" />

  <!-- Center Graphic -->
  <g transform="translate(400, 270)">
    
      <!-- Platter -->
      <ellipse cx="0" cy="60" rx="120" ry="30" fill="none" stroke="url(#gold-grad)" stroke-width="1" opacity="0.4" />
      
      <!-- Skewer -->
      <line x1="-110" y1="-10" x2="110" y2="10" stroke="url(#gold-grad)" stroke-width="3" filter="url(#glow)" />
      
      <!-- Chicken Pieces (Rounded irregular shapes) -->
      <path d="M -70 -25 C -50 -35 -40 -15 -50 0 C -60 15 -80 5 -70 -25 Z" fill="url(#gold-grad)" />
      <path d="M -20 -15 C 0 -25 10 -5 0 10 C -10 25 -30 15 -20 -15 Z" fill="url(#gold-grad)" />
      <path d="M 30 -5 C 50 -15 60 5 50 20 C 40 35 20 25 30 -5 Z" fill="url(#gold-grad)" />
    
  </g>

  <!-- Title Text -->
  <text x="400" y="520" text-anchor="middle" font-family="'Cormorant Garamond', serif" font-size="28" font-weight="bold" fill="url(#gold-grad)" letter-spacing="4" filter="url(#glow)">
    MURGH TIKKA LAHORI
  </text>
  <text x="400" y="550" text-anchor="middle" font-family="'Montserrat', sans-serif" font-size="10" font-weight="light" fill="#F4E8D1" opacity="0.6" letter-spacing="3">
    URBAN MAHARAJA FINE DINING
  </text>
</svg>
