
<svg xmlns="http://www.w3.org/2000/svg" viewBox="0 0 800 600" width="100%" height="100%">
  <defs>
    <radialGradient id="bg-grad" cx="50%" cy="50%" r="70%">
      <stop offset="0%" stop-color="#0D1B3E" />
      <stop offset="100%" stop-color="#050C1A" />
    </radialGradient>
    <linearGradient id="gold-grad" x1="0%" y1="0%" x2="100%" y2="100%">
      <stop offset="0%" stop-color="#F4E8D1" />
      <stop offset="50%" stop-color="#D4AF37" />
      <stop offset="100%" stop-color="#AA7C11" />
    </linearGradient>
    <filter id="glow" x="-20%" y="-20%" width="140%" height="140%">
      <feGaussianBlur stdDeviation="8" result="blur" />
      <feComposite in="SourceGraphic" in2="blur" operator="over" />
    </filter>
  </defs>

  <!-- Background -->
  <rect width="800" height="600" fill="url(#bg-grad)" />
  
  <!-- Outer luxury border -->
  <rect x="20" y="20" width="760" height="560" fill="none" stroke="url(#gold-grad)" stroke-width="1.5" opacity="0.3" />
  <rect x="30" y="30" width="740" height="540" fill="none" stroke="url(#gold-grad)" stroke-width="0.5" opacity="0.15" />
  
  <!-- Corner designs -->
  <path d="M 20 60 L 20 20 L 60 20" fill="none" stroke="url(#gold-grad)" stroke-width="3" />
  <path d="M 780 60 L 780 20 L 740 20" fill="none" stroke="url(#gold-grad)" stroke-width="3" />
  <path d="M 20 540 L 20 580 L 60 580" fill="none" stroke="url(#gold-grad)" stroke-width="3" />
  <path d="M 780 540 L 780 580 L 740 580" fill="none" stroke="url(#gold-grad)" stroke-width="3" />

  <!-- Center Graphic -->
  <g transform="translate(400, 270)">
    
      <!-- Handi (Clay pot) outline -->
      <path d="M -60 40 C -60 80 -40 100 0 100 C 40 100 60 80 60 40 L 50 -10 C 50 -20 30 -30 0 -30 C -30 -30 -50 -20 -50 -10 Z" fill="none" stroke="url(#gold-grad)" stroke-width="2.5" filter="url(#glow)" />
      
      <!-- Pot neck ring -->
      <ellipse cx="0" cy="-15" rx="45" ry="10" fill="none" stroke="url(#gold-grad)" stroke-width="2" />
      <ellipse cx="0" cy="-30" rx="35" ry="8" fill="url(#gold-grad)" opacity="0.7" />
      
      <!-- Steam lines -->
      <path d="M -15 -45 Q -20 -65 -10 -85" fill="none" stroke="url(#gold-grad)" stroke-width="1.5" opacity="0.5" stroke-linecap="round" />
      <path d="M 0 -48 Q 5 -70 -5 -90" fill="none" stroke="url(#gold-grad)" stroke-width="1.5" opacity="0.7" stroke-linecap="round" />
      <path d="M 15 -45 Q 10 -65 20 -85" fill="none" stroke="url(#gold-grad)" stroke-width="1.5" opacity="0.5" stroke-linecap="round" />
    
  </g>

  <!-- Title Text -->
  <text x="400" y="520" text-anchor="middle" font-family="'Cormorant Garamond', serif" font-size="28" font-weight="bold" fill="url(#gold-grad)" letter-spacing="4" filter="url(#glow)">
    SHAHI DUM BIRYANI
  </text>
  <text x="400" y="550" text-anchor="middle" font-family="'Montserrat', sans-serif" font-size="10" font-weight="light" fill="#F4E8D1" opacity="0.6" letter-spacing="3">
    URBAN MAHARAJA FINE DINING
  </text>
</svg>
